<mxfile host="app.diagrams.net" modified="2023-05-25T10:09:34.796Z" agent="Mozilla/5.0 (Windows NT 10.0; Win64; x64) AppleWebKit/537.36 (KHTML, like Gecko) Chrome/113.0.0.0 Safari/537.36" version="21.3.3" etag="fKrGGCNiEV2SjFFGki1C" type="github">
  <diagram name="Page-1" id="L68cCSnjKjVKMLjNh44Q">
    <mxGraphModel>
      <root>
        <mxCell id="0" />
        <mxCell id="1" parent="0" />
      </root>
    </mxGraphModel>
  </diagram>
</mxfile>
